<svg width="390" height="79" viewBox="0 0 390 79" fill="none" xmlns="http://www.w3.org/2000/svg">
<g opacity="0.42">
<path d="M229.011 49.1533C229.011 62.843 208.017 49.1533 194.328 49.1533C180.638 49.1533 160.461 62.843 160.461 49.1533C160.461 35.4635 180.638 24.3658 194.328 24.3658C208.017 24.3658 229.011 35.4635 229.011 49.1533Z" fill="#5CD43B"/>
<path d="M166.813 25.6533L159.813 15.1536C158.836 13.6875 159.232 11.7067 160.698 10.7292C162.164 9.75181 164.145 10.1476 165.123 11.6136L172.123 22.1133C173.1 23.5796 172.703 25.5608 171.237 26.5382C169.771 27.5154 167.79 27.1193 166.813 25.6533Z" fill="#5CD43B" stroke="white" stroke-width="3"/>
<path d="M222.658 25.6533L229.658 15.1536C230.635 13.6875 230.239 11.7067 228.773 10.7292C227.307 9.75181 225.326 10.1476 224.348 11.6136L217.348 22.1133C216.371 23.5796 216.768 25.5608 218.234 26.5382C219.7 27.5154 221.681 27.1193 222.658 25.6533Z" fill="#5CD43B" stroke="white" stroke-width="3"/>
<path d="M191.545 17.3096V4.69043C191.545 2.92848 192.973 1.50018 194.735 1.5C196.497 1.5 197.927 2.92837 197.927 4.69043V17.3096C197.927 19.0716 196.497 20.5 194.735 20.5C192.973 20.4998 191.545 19.0715 191.545 17.3096Z" fill="#5CD43B" stroke="white" stroke-width="3"/>
</g>
<path d="M389.471 78.0117H383.388V51.2077H366.434V78.0117H360.382V32.4634H366.434V50.9298C366.476 50.1269 366.661 49.3755 366.99 48.6755C367.32 47.955 367.752 47.3374 368.287 46.8227C368.843 46.2875 369.481 45.8757 370.202 45.5875C370.922 45.2787 371.694 45.1243 372.518 45.1243H383.388C384.232 45.1243 385.024 45.289 385.765 45.6184C386.506 45.9272 387.145 46.3595 387.68 46.9154C388.236 47.4506 388.668 48.0888 388.977 48.8299C389.306 49.5711 389.471 50.3636 389.471 51.2077V78.0117Z" fill="#0A0A0A"/>
<path d="M345.199 71.9283V64.3009H330.778C329.934 64.3009 329.141 64.1465 328.4 63.8377C327.659 63.5083 327.011 63.076 326.455 62.5407C325.92 61.9849 325.487 61.3364 325.158 60.5953C324.849 59.8542 324.695 59.0616 324.695 58.2175V51.2077C324.695 50.3637 324.849 49.5711 325.158 48.8299C325.487 48.0888 325.92 47.4506 326.455 46.9154C327.011 46.3595 327.659 45.9272 328.4 45.6184C329.141 45.289 329.934 45.1243 330.778 45.1243H350.016V51.2077H330.778V58.2175H345.199C346.043 58.2175 346.825 58.3822 347.546 58.7116C348.287 59.0204 348.936 59.4527 349.491 60.0086C350.047 60.5438 350.48 61.182 350.788 61.9231C351.118 62.6643 351.282 63.4569 351.282 64.3009V71.9283C351.282 72.7724 351.118 73.565 350.788 74.3061C350.48 75.0472 350.047 75.6957 349.491 76.2515C348.936 76.7868 348.287 77.2191 347.546 77.5485C346.825 77.8573 346.043 78.0117 345.199 78.0117H324.695V71.9283H345.199Z" fill="#0A0A0A"/>
<path d="M287.772 63.6524C287.772 62.8084 287.927 62.0261 288.236 61.3055C288.565 60.5644 288.997 59.9159 289.532 59.3601C290.088 58.8042 290.737 58.3719 291.478 58.0631C292.219 57.7337 293.001 57.569 293.825 57.569H309.512V51.2077H289.656V45.1243H309.512C310.356 45.1243 311.149 45.289 311.89 45.6184C312.631 45.9272 313.269 46.3595 313.804 46.9154C314.36 47.4506 314.792 48.0888 315.101 48.8299C315.431 49.5711 315.595 50.3637 315.595 51.2077V78.0117H309.512V72.4533C309.45 73.215 309.244 73.9355 308.894 74.6149C308.544 75.2942 308.091 75.8913 307.536 76.4059C307 76.9 306.383 77.2912 305.683 77.5794C304.983 77.8676 304.242 78.0117 303.459 78.0117H293.825C293.001 78.0117 292.219 77.8573 291.478 77.5485C290.737 77.2191 290.088 76.7868 289.532 76.2515C288.997 75.6957 288.565 75.0472 288.236 74.3061C287.927 73.565 287.772 72.7724 287.772 71.9283V63.6524ZM293.825 71.9283H309.512V63.6524H293.825V71.9283Z" fill="#0A0A0A"/>
<path d="M253.104 45.1243H261.133V34.9956H267.216V45.1243H278.024V51.2077H267.216V71.9283H278.024V78.0117H267.216C266.393 78.0117 265.611 77.8573 264.869 77.5485C264.128 77.2191 263.48 76.7868 262.924 76.2515C262.368 75.6957 261.926 75.0472 261.596 74.3061C261.287 73.5649 261.133 72.7723 261.133 71.9283V51.2077H253.104V45.1243Z" fill="#0A0A0A"/>
<path d="M216.799 59.0512C215.935 59.0512 215.111 58.8865 214.329 58.5571C213.567 58.2072 212.898 57.7543 212.322 57.1984C211.745 56.622 211.292 55.9529 210.963 55.1912C210.634 54.4089 210.469 53.5854 210.469 52.7208V40.0599C210.469 39.1953 210.634 38.3821 210.963 37.6204C211.292 36.8381 211.745 36.169 212.322 35.6132C212.898 35.0368 213.567 34.5838 214.329 34.2545C215.111 33.9045 215.935 33.7295 216.799 33.7295H238.292C239.157 33.7295 239.97 33.9045 240.732 34.2545C241.514 34.5838 242.193 35.0368 242.77 35.6132C243.346 36.169 243.799 36.8381 244.128 37.6204C244.458 38.3821 244.622 39.1953 244.622 40.0599V45.7728H238.292V40.0599H216.799V52.7208H238.292C239.157 52.7208 239.97 52.8855 240.732 53.2149C241.514 53.5443 242.193 53.9972 242.77 54.5736C243.346 55.15 243.799 55.8294 244.128 56.6117C244.458 57.3734 244.622 58.1866 244.622 59.0512V71.6812C244.622 72.5459 244.458 73.3693 244.128 74.1516C243.799 74.9133 243.346 75.5824 242.77 76.1588C242.193 76.7353 241.514 77.1882 240.732 77.5176C239.97 77.847 239.157 78.0116 238.292 78.0116H216.182C215.317 78.0116 214.494 77.847 213.711 77.5176C212.95 77.1882 212.281 76.7353 211.704 76.1588C211.128 75.5824 210.675 74.9133 210.345 74.1516C210.016 73.3693 209.851 72.5459 209.851 71.6812V65.9993H216.182V71.6812H238.292V59.0512H216.799Z" fill="#0A0A0A"/>
<path d="M181.586 32.4634V78.0117H175.533V32.4634H181.586Z" fill="#0A0A0A"/>
<path d="M137.962 63.6524C137.962 62.8084 138.117 62.0261 138.426 61.3055C138.755 60.5644 139.187 59.9159 139.722 59.3601C140.278 58.8042 140.927 58.3719 141.668 58.0631C142.409 57.7337 143.191 57.569 144.015 57.569H159.702V51.2077H139.846V45.1243H159.702C160.546 45.1243 161.339 45.289 162.08 45.6184C162.821 45.9272 163.459 46.3595 163.994 46.9154C164.55 47.4506 164.982 48.0888 165.291 48.8299C165.621 49.5711 165.785 50.3637 165.785 51.2077V78.0117H159.702V72.4533C159.64 73.215 159.434 73.9355 159.084 74.6149C158.734 75.2942 158.281 75.8913 157.726 76.4059C157.19 76.9 156.573 77.2912 155.873 77.5794C155.173 77.8676 154.432 78.0117 153.649 78.0117H144.015C143.191 78.0117 142.409 77.8573 141.668 77.5485C140.927 77.2191 140.278 76.7868 139.722 76.2515C139.187 75.6957 138.755 75.0472 138.426 74.3061C138.117 73.565 137.962 72.7724 137.962 71.9283V63.6524ZM144.015 71.9283H159.702V63.6524H144.015V71.9283Z" fill="#0A0A0A"/>
<path d="M99.1562 45.1243H105.209V71.9283H122.162V45.1243H128.245V78.0117H122.162V72.4533C122.1 73.215 121.894 73.9355 121.544 74.6149C121.194 75.2942 120.741 75.8913 120.186 76.4059C119.65 76.9 119.033 77.2912 118.333 77.5794C117.633 77.8676 116.892 78.0117 116.109 78.0117H105.209C104.385 78.0117 103.603 77.8573 102.862 77.5485C102.121 77.2191 101.472 76.7868 100.916 76.2515C100.381 75.6957 99.9488 75.0472 99.6195 74.3061C99.3107 73.565 99.1562 72.7724 99.1562 71.9283V45.1243Z" fill="#0A0A0A"/>
<path d="M83.9735 71.9283V64.3009H69.5525C68.7084 64.3009 67.9158 64.1465 67.1747 63.8377C66.4336 63.5083 65.7851 63.076 65.2293 62.5407C64.694 61.9849 64.2617 61.3364 63.9323 60.5953C63.6235 59.8542 63.4691 59.0616 63.4691 58.2175V51.2077C63.4691 50.3637 63.6235 49.5711 63.9323 48.8299C64.2617 48.0888 64.694 47.4506 65.2293 46.9154C65.7851 46.3595 66.4336 45.9272 67.1747 45.6184C67.9158 45.289 68.7084 45.1243 69.5525 45.1243H88.7908V51.2077H69.5525V58.2175H83.9735C84.8176 58.2175 85.5999 58.3822 86.3204 58.7116C87.0615 59.0204 87.71 59.4527 88.2659 60.0086C88.8217 60.5438 89.254 61.182 89.5628 61.9231C89.8922 62.6643 90.0569 63.4569 90.0569 64.3009V71.9283C90.0569 72.7724 89.8922 73.565 89.5628 74.3061C89.254 75.0472 88.8217 75.6957 88.2659 76.2515C87.71 76.7868 87.0615 77.2191 86.3204 77.5485C85.5999 77.8573 84.8176 78.0117 83.9735 78.0117H63.4691V71.9283H83.9735Z" fill="#0A0A0A"/>
<path d="M54.0609 45.1243V78.0117H47.9775V45.1243H54.0609ZM47.6687 32.4634H54.3697V38.7939H47.6687V32.4634Z" fill="#0A0A0A"/>
<path d="M17.0767 78.0116L0 33.7295H6.79364L20.5662 70.1681L34.3696 33.7295H41.1324L24.0556 78.0116H17.0767Z" fill="#0A0A0A"/>
</svg>
